<?xml version="1.0" standalone="no"?>
<!DOCTYPE svg PUBLIC "-//W3C//DTD SVG 20010904//EN"
 "http://www.w3.org/TR/2001/REC-SVG-20010904/DTD/svg10.dtd">
<svg version="1.0" xmlns="http://www.w3.org/2000/svg"
 width="1em" height="1em" viewBox="0 0 512.000000 512.000000"
 preserveAspectRatio="xMidYMid meet">

<g transform="translate(0.000000,512.000000) scale(0.100000,-0.100000)"
fill="#000000" stroke="none">
<path d="M2430 4513 c-137 -15 -313 -81 -446 -168 -218 -141 -376 -365 -445
-630 -34 -129 -34 -360 0 -488 126 -486 538 -807 1035 -807 496 0 935 373
1021 869 100 569 -284 1117 -854 1216 -77 14 -225 17 -311 8z"/>
<path d="M1500 2108 c-227 -32 -473 -169 -637 -354 l-61 -70 64 -108 c376
-634 1046 -1001 1778 -973 681 25 1304 412 1640 1019 l37 66 -82 86 c-133 141
-266 229 -437 290 -157 56 -158 56 -1241 55 -551 -1 -1025 -6 -1061 -11z"/>
</g>
</svg>
